{"title":"Kick Ass TS XViD - IMAGiNE","uid":5510471,"size":1499739524,"categoryP":"video","categoryS":"movies","magnet":"?xt=urn:btih:8143da4b9f29c19ebd9983b104dfcbfd3c80f64c&amp;dn=Kick+Ass+TS+XViD+-+IMAGiNE&amp;tr=udp%3A%2F%2Ftracker.openbittorrent.com%3A80&amp;tr=udp%3A%2F%2Fopen.demonii.com%3A1337&amp;tr=udp%3A%2F%2Ftracker.coppersurfer.tk%3A6969&amp;tr=udp%3A%2F%2Fexodus.desync.com%3A6969","seeders":0,"leechers":1,"uploader":"TvTeam","files":6,"time":1272029500,"description":"\n &lt;a href=&quot;\nhttp://www.torrentday.com&quot; rel=&quot;nofollow&quot; target=&quot;_NEW&quot;&gt;\nhttp://www.torrentday.com&lt;/a&gt;   -    Your Key To The Scene.\n\n\nNow TvTeam with [No-RAR] Releases.\n\n\n(((((((((((((= Enjoy No RAR releases =))))))))))))))))))))\n\n...................................NFO:....................................\n\n\nKick Ass TS XViD - IMAGiNE\n\n\nRipper ...........: IMAGiNE                                        Rating.......:8.5/10                             \nVideo Codec.......: XVID                                         Date......:23/04/10\nAudio Codec.......:MP3                                           Date......:16/04/10\nAudio Bitrate.....:128                                              Runtime.......:1h 50mn\nSubtitles.........:NIL                                                 Language..........:ENGLISH\nResolution...... 720 x 304                                      URL..........:http://www.imdb.com/title/tt1250777/\n\n\nDETAILS:\n\nVideo\nID                               : 0\nFormat                           : MPEG-4 Visual\nFormat profile                   : Advanced Simple@L5\nFormat settings, BVOP            : Yes\nFormat settings, QPel            : No\nFormat settings, GMC             : No warppoints\nFormat settings, Matrix          : Default (MPEG)\nMuxing mode                      : Packed bitstream\nCodec ID                         : XVID\nCodec ID/Hint                    : XviD\nDuration                         : 1h 50mn\nBit rate                         : 1 647 Kbps\nWidth                            : 720 pixels\nHeight                           : 304 pixels\nDisplay aspect ratio             : 2.35\nFrame rate                       : 23.976 fps\nResolution                       : 24 bits\nColorimetry                      : 4:2:0\nScan type                        : Progressive\nBits/(Pixel*Frame)               : 0.314\nStream size                      : 1.28 GiB (92%)\nWriting library                  : XviD 1.2.1 (UTC 2008-12-04)\n\nAudio\nID                               : 1\nFormat                           : MPEG Audio\nFormat version                   : Version 1\nFormat profile                   : Layer 3\nCodec ID                         : 55\nCodec ID/Hint                    : MP3\nDuration                         : 1h 50mn\nBit rate mode                    : Constant\nBit rate                         : 128 Kbps\nChannel(s)                       : 2 channels\nSampling rate                    : 44.1 KHz\nResolution                       : 16 bits\nStream size                      : 101 MiB (7%)\nAlignment                        : Split accross interleaves\nInterleave, duration             : 42 ms (1.00 video frame)\nInterleave, preload duration     : 500 ms\n\n\nNOTES:\n\nIMAGiNE bringing you another release.....Kick Ass\nFirst off thanks to a good friend for the source files ;-)  (cheers bro)\nWell we had some nice line audio  already for this so it was a case of syncing it up to this new\nvideo source and then do some tweaking on the video,making it a touch more brighter,sharper,colour and\nalso had to run a denoiser aswell.\n\nOverall pretty nice looking and sounding TS we think so enjoy ;-)","torrent":{"xt":"urn:btih:8143da4b9f29c19ebd9983b104dfcbfd3c80f64c","amp;dn":"Kick+Ass+TS+XViD+-+IMAGiNE","amp;tr":["udp%3A%2F%2Ftracker.openbittorrent.com%3A80","udp%3A%2F%2Fopen.demonii.com%3A1337","udp%3A%2F%2Ftracker.coppersurfer.tk%3A6969","udp%3A%2F%2Fexodus.desync.com%3A6969"],"infoHash":"8143da4b9f29c19ebd9983b104dfcbfd3c80f64c","infoHashBuffer":{"type":"Buffer","data":[129,67,218,75,159,41,193,158,189,153,131,177,4,223,203,253,60,128,246,76]},"announce":[],"urlList":[]}}